<?xml version="1.0" ?><!DOCTYPE svg  PUBLIC '-//W3C//DTD SVG 1.1//EN'  'http://www.w3.org/Graphics/SVG/1.1/DTD/svg11.dtd'><svg xmlns="http://www.w3.org/2000/svg" xmlns:xlink="http://www.w3.org/1999/xlink" xml:space="preserve" width="512px" height="512px" style="shape-rendering:geometricPrecision; text-rendering:geometricPrecision; image-rendering:optimizeQuality; fill-rule:evenodd; clip-rule:evenodd" viewBox="0 0 512 512"><defs><style type="text/css">
   <![CDATA[
    .fil6 {fill:#333333}
    .fil2 {fill:#454C56}
    .fil0 {fill:#565D69}
    .fil7 {fill:#595959}
    .fil4 {fill:#5E9FE3}
    .fil8 {fill:#68B1FC}
    .fil5 {fill:#767C86}
    .fil9 {fill:#BA7938}
    .fil3 {fill:#FDCA99}
    .fil1 {fill:#FFA64D}
   ]]>
  </style></defs><g id="Layer_x0020_1"><g id="_280457168"><path id="_280459232" class="fil0" d="M397.342 511.999l-383.198 0c-3.30001,0 -6.00002,-2.70001 -6.00002,-6.00002l0 -90.1999c0,-62.5006 50.8998,-113.4 113.4,-113.4l44.099 0c3.30001,0 6.00002,2.70001 6.00002,6.00002l0 3.30001c0,18.7997 15.3,34.2001 34.2001,34.2001 18.7997,0 34.2001,-15.3 34.2001,-34.2001l0 -3.30001c0,-3.30001 2.70001,-6.00002 6.00002,-6.00002l44.099 0c62.5006,0 113.4,50.8998 113.4,113.4l0 90.1999c-0.200788,3.30001 -2.8004,6.00002 -6.20081,6.00002z"/><path id="_280459400" class="fil1" d="M211.743 511.999l-12 0 0 -157.076c0,-4.96301 2.70001,-9.02365 6.00002,-9.02365 3.30001,0 6.00002,4.06064 6.00002,9.02365l0 157.076z"/><path id="_280458728" class="fil1" d="M325.142 511.999l-12.1996 0 0 -96.9003 -26.8997 -29.5005c-1.0004,-1.09961 -1.6004,-2.5004 -1.6004,-4.00041l0 -79.1991 5.70002 0c2.1815,0 4.34765,0.0696853 6.49963,0.191339l0 76.6089 26.8997 29.5005c1.0004,1.09961 1.6004,2.5004 1.6004,4.00041l0 99.2991zm-226.699 0l-11.8996 0 0 -99.3003c0,-1.5 0.600002,-2.89962 1.6004,-4.00041l26.8997 -29.5005 0 -76.6077c2.15316,-0.121654 4.31812,-0.191339 6.50081,-0.191339l5.39884 0 0 79.2002c0,1.5 -0.600002,2.89962 -1.6004,4.00041l-26.8997 29.5005 0 96.8991z"/><path id="_280458584" class="fil1" d="M318.942 418.699l-226.399 0c-3.30001,0 -6.00002,-2.70001 -6.00002,-6.00002 0,-3.30001 2.70001,-6.00002 6.00002,-6.00002l226.399 0c3.30001,0 6.00002,2.70001 6.00002,6.00002 0,3.30001 -2.70001,6.00002 -6.00002,6.00002z"/><path id="_280458536" class="fil1" d="M318.942 470.399l-226.399 0c-3.30001,0 -6.00002,-2.70001 -6.00002,-6.00002 0,-3.30001 2.70001,-6.00002 6.00002,-6.00002l226.399 0c3.30001,0 6.00002,2.70001 6.00002,6.00002 0,3.30001 -2.70001,6.00002 -6.00002,6.00002z"/><path id="_280458656" class="fil2" d="M96.3428 147.6l-29.4001 0c-4.00041,0 -7.30042,-3.30001 -7.30042,-7.30042l0 -76.9998c0,-4.00041 3.30001,-7.30042 7.30042,-7.30042l29.4001 0c3.30001,0 6.00002,2.70001 6.00002,6.00002l0 79.6999c0,3.30001 -2.70001,5.90081 -6.00002,5.90081zm248.199 0l-29.3989 0c-3.30001,0 -6.00002,-2.70001 -6.00002,-6.00002l0 -79.6999c0,-3.30001 2.70001,-6.00002 6.00002,-6.00002l29.3989 0c4.00041,0 7.30042,3.30001 7.30042,7.30042l0 76.9998c0.100394,4.09962 -3.19962,7.39963 -7.30042,7.39963z"/><path id="_280458680" class="fil1" d="M467.342 310.399c-3.30001,0 -6.00002,-2.70001 -6.00002,-6.00002l0 -109.799 -47.5005 0c-3.30001,0 -6.00002,-2.70001 -6.00002,-6.00002 0,-3.30001 2.70001,-6.00002 6.00002,-6.00002l53.5006 0c3.30001,0 6.00002,2.70001 6.00002,6.00002l0 115.699c0,3.4004 -2.70001,6.10041 -6.00002,6.10041z"/><path id="_280458848" class="fil3" d="M205.743 357.899c-25.5001,0 -46.2001,-20.7001 -46.2001,-46.2001l0 -35.2005c0,-1.99961 1.0004,-3.79962 2.59961,-4.99962 1.6004,-1.09961 3.70041,-1.3004 5.59962,-0.600002 12.1004,4.80001 24.9001,7.30042 37.9005,7.30042 13.0996,0 25.9005,-2.40001 37.9005,-7.30042 1.80001,-0.700396 3.90001,-0.499608 5.59962,0.600002 1.6004,1.09961 2.59961,3.00001 2.59961,4.99962l0 35.2005c0.200788,25.5001 -20.4993,46.2001 -45.9994,46.2001z"/><path id="_280458104" class="fil0" d="M205.743 290.299c-63.6002,0 -115.4,-51.7986 -115.4,-115.399l0 -118.601c0,-30.9993 25.3005,-56.2998 56.301,-56.2998l118.198 0c31.0997,0 56.2998,25.3005 56.2998,56.2998l0 118.5c0,63.6994 -51.7998,115.499 -115.399,115.499z"/><path id="_280457744" class="fil4" d="M262.142 160.6l-112.798 0c-7.00042,0 -12.7004,-5.70002 -12.7004,-12.7004l0 -70.199c0,-7.00042 5.70002,-12.7004 12.7004,-12.7004l112.798 0c7.00042,0 12.7004,5.70002 12.7004,12.7004l0 70.0998c0,7.09963 -5.70002,12.7996 -12.7004,12.7996z"/><path id="_280458008" class="fil5" d="M165.844 248.3c-0.400395,0 -0.900003,0 -1.3004,-0.199607 -3.19962,-0.700396 -5.29962,-4.00041 -4.50001,-7.20002 3.60001,-15.7997 -15.1004,-30.7997 -15.3,-31.0005 -2.59961,-1.99961 -3.1004,-5.80041 -1.09961,-8.40003 1.99961,-2.59961 5.80041,-3.1004 8.40003,-1.09961 1.0004,0.799609 25.0005,19.6997 19.6005,43.0997 -0.601183,2.89962 -3.1004,4.80001 -5.80041,4.80001z"/><path id="_280457960" class="fil5" d="M245.643 248.3c-2.70001,0 -5.20041,-1.9004 -5.80041,-4.69962 -5.29962,-23.4001 18.5989,-42.3001 19.5993,-43.0997 2.59961,-1.99961 6.40041,-1.6004 8.40003,1.09961 1.99961,2.59961 1.6004,6.40041 -1.0004,8.40003l0 0c-0.199607,0.100394 -18.8989,15.1004 -15.2989,31.0005 0.700396,3.19962 -1.3004,6.40041 -4.50001,7.20002 -0.499608,0.0992129 -0.898822,0.0992129 -1.39961,0.0992129z"/><path id="_280458128" class="fil6" d="M497.742 511.999l-60.899 0c-3.30001,0 -6.00002,-2.70001 -6.00002,-6.00002l0 -149.1c0,-3.30001 2.70001,-6.00002 6.00002,-6.00002l60.899 0c3.30001,0 6.00002,2.70001 6.00002,6.00002l0 149.1c0,3.30001 -2.59961,6.00002 -6.00002,6.00002z"/><path id="_280458416" class="fil7" d="M497.742 362.898l-60.899 0c-1.9004,0 -3.60001,-0.900003 -4.80001,-2.40001 -1.09961,-1.5 -1.5,-3.4004 -1.0004,-5.20041l14.4 -52.5002c0.700396,-2.59961 3.1004,-4.39962 5.80041,-4.39962l32.1993 0.00118111c2.70001,0 5.10002,1.80001 5.80041,4.39962l14.4 52.5002c0.499608,1.80001 0.100394,3.70041 -1.0004,5.20041 -1.2,1.49882 -3.00001,2.39883 -4.90041,2.39883z"/><path id="_280457720" class="fil8" d="M149.344 76.9998c-0.400395,0 -0.700396,0.300001 -0.700396,0.700396l0 70.0998c0,0.400395 0.300001,0.700396 0.700396,0.700396l112.798 0c0.400395,0 0.700396,-0.300001 0.700396,-0.700396l0 -70.0998c0,-0.400395 -0.300001,-0.700396 -0.700396,-0.700396l-112.798 0z"/><polygon id="_280457792" class="fil9" points="199.743,458.399 199.743,418.699 98.4428,418.699 98.4428,458.399 "/><polygon id="_280456928" class="fil9" points="312.942,458.399 312.942,418.699 211.743,418.699 211.743,458.399 "/><polygon id="_280457312" class="fil9" points="312.942,511.999 312.942,470.399 211.743,470.399 211.743,511.999 "/><polygon id="_280457288" class="fil9" points="199.743,511.999 199.743,470.399 98.4428,470.399 98.4428,511.999 "/></g></g></svg>